<mxfile host="app.diagrams.net" modified="2023-09-03T15:04:01.328Z" agent="Mozilla/5.0 (Macintosh; Intel Mac OS X 10_15_7) AppleWebKit/605.1.15 (KHTML, like Gecko) Version/16.6 Safari/605.1.15" version="21.7.2" etag="R9IPxESzCEP07e1z0zc1" type="github">
  <diagram name="Страница — 1" id="g8PmK0pqkfm-1v2WMf03">
    <mxGraphModel>
      <root>
        <mxCell id="0" />
        <mxCell id="1" parent="0" />
      </root>
    </mxGraphModel>
  </diagram>
</mxfile>
